<svg width="300" height="39" viewBox="0 0 300 39" fill="none" xmlns="http://www.w3.org/2000/svg">
<path d="M28.6943 23.2776C22.7505 23.2776 16.8045 23.3561 10.865 23.2416C8.35942 23.1929 6.02768 22.3047 4.04147 20.6788C1.85599 18.8834 0.851228 16.5389 0.620174 13.7578C0.399719 11.1017 0.662569 8.53259 1.83056 6.13514C3.23384 3.25862 5.69064 1.68576 8.73674 0.971401C10.0743 0.659796 11.4331 0.469017 12.8173 0.469017C24.0266 0.475377 35.2337 0.479616 46.443 0.456299C47.1108 0.456299 47.2825 0.602562 47.2697 1.27453C47.2231 3.65078 47.2252 6.03127 47.2634 8.40752C47.2719 9.00954 47.1235 9.16216 46.5172 9.16216C35.8358 9.14096 25.1522 9.15792 14.4707 9.124C13.6482 9.12188 13.4341 9.33598 13.4871 10.1224C13.5592 11.1865 13.5465 12.2612 13.502 13.3296C13.4786 13.9274 13.6058 14.1288 14.2693 14.1266C22.3795 14.1033 30.4897 14.0864 38.5978 14.1457C40.7494 14.1606 42.708 14.9194 44.406 16.31C46.123 17.7154 47.0514 19.5002 47.2613 21.7027C47.4118 23.2798 47.4499 23.2798 45.8834 23.2798C40.1537 23.2798 34.424 23.2798 28.6943 23.2798V23.2776Z" fill="white"/>
<path d="M264.346 18.4381C264.6 18.2262 264.791 18.2982 264.967 18.2961C272.168 18.2961 279.371 18.2855 286.572 18.3131C287.311 18.3152 287.509 18.1159 287.494 17.3825C287.445 15.0571 287.46 12.7317 287.487 10.4064C287.494 9.84674 287.4 9.60509 286.756 9.6072C279.239 9.6284 271.721 9.6284 264.204 9.6072C263.602 9.6072 263.528 9.8319 263.532 10.3555C263.551 14.4127 263.523 18.472 263.551 22.5293C263.555 23.1292 263.42 23.2924 262.809 23.2881C259.356 23.2563 255.903 23.2606 252.45 23.2839C251.922 23.2881 251.791 23.1461 251.793 22.6247C251.808 15.4556 251.801 8.28447 251.784 1.11544C251.784 0.610941 251.897 0.458318 252.441 0.458318C264.452 0.475276 276.463 0.418042 288.471 0.500713C291.169 0.519791 293.792 1.25535 296.049 2.87908C297.626 4.01316 298.249 5.71532 298.735 7.51076C299.345 9.76619 299.475 12.0619 299.356 14.3661C299.233 16.7784 298.69 19.0889 296.789 20.7974C295.155 22.2685 293.175 23.1164 291.01 23.25C284.013 23.6782 277.003 23.3305 269.997 23.4408C269.72 23.445 269.484 23.3962 269.272 23.1906C267.646 21.6135 266.012 20.0428 264.344 18.4339L264.346 18.4381Z" fill="white"/>
<path d="M196.528 23.7821C196.528 18.9384 196.444 14.2304 196.56 9.52458C196.628 6.72862 198.18 4.55798 200.327 2.91305C202.542 1.21512 205.171 0.48592 207.95 0.479561C217.794 0.454124 227.64 0.432926 237.484 0.494399C240.121 0.511357 242.449 1.61787 244.528 3.21193C245.366 3.85422 246.15 4.55586 246.758 5.4398C247.439 6.42973 247.767 7.53624 247.776 8.70635C247.806 13.3296 247.782 17.9527 247.801 22.5738C247.803 23.1038 247.704 23.2967 247.11 23.2903C243.496 23.2585 239.882 23.2691 236.268 23.2839C235.695 23.2861 235.367 23.2119 235.672 22.5378C235.755 22.3555 235.736 22.1202 235.736 21.9082C235.74 18.0545 235.723 14.2029 235.755 10.3492C235.759 9.73444 235.585 9.60513 234.998 9.60725C226.462 9.62633 217.925 9.62633 209.387 9.60725C208.774 9.60725 208.581 9.7408 208.567 10.3958C208.463 14.5315 208.372 18.6671 208.437 22.8049C208.446 23.3433 208.278 23.4535 207.77 23.4493C204.369 23.426 200.969 23.4302 197.569 23.4408C197.232 23.4408 196.838 23.2818 196.528 23.7779V23.7821Z" fill="white"/>
<path d="M173.934 0.477477C180.058 0.477477 186.182 0.485956 192.306 0.462638C192.868 0.460519 192.982 0.585584 193.018 1.14944C193.181 3.73343 193.122 6.31954 193.175 8.90353C193.188 9.52038 193.016 9.64544 192.439 9.64332C183.907 9.62424 175.373 9.62636 166.841 9.62424C163.846 9.62424 160.849 9.64968 157.853 9.60729C157.118 9.59669 156.984 9.8235 156.991 10.5145C157.027 14.523 156.993 18.5336 157.018 22.5421C157.023 23.1292 156.891 23.2988 156.281 23.2925C152.613 23.2607 148.946 23.267 145.281 23.2861C144.77 23.2882 144.611 23.1695 144.613 22.6332C144.639 18.9427 144.501 15.2458 144.658 11.5617C144.832 7.50024 146.568 4.24217 150.174 2.0779C151.929 1.02437 153.811 0.505034 155.804 0.490195C161.847 0.439321 167.891 0.471117 173.934 0.471117V0.477477Z" fill="white"/>
<path d="M97.8642 23.2756C93.4975 23.2756 89.2686 23.2714 85.0376 23.282C84.6751 23.282 84.4737 23.1844 84.2935 22.8453C82.6041 19.6868 80.8934 16.539 79.1807 13.3933C78.4409 12.0366 77.6841 10.6906 76.9168 9.30637C76.2172 9.93806 75.9883 10.8156 75.5707 11.5597C73.9512 14.4468 72.4208 17.3848 70.85 20.3016C70.725 20.5326 70.5299 20.7276 70.4197 20.9651C70.0445 21.7684 69.8007 22.8368 69.0694 23.1929C68.3529 23.5406 67.3397 23.2756 66.4558 23.2756C62.761 23.2756 59.0684 23.2756 55.2698 23.2756C55.5114 22.4044 56.0647 21.76 56.4759 21.0647C58.8267 17.0859 61.2305 13.1389 63.6089 9.17706C65.2454 6.45105 66.8733 3.7208 68.5013 0.988426C68.7345 0.596271 69.0291 0.452127 69.5188 0.454247C74.4684 0.479684 79.4181 0.475444 84.3677 0.458486C84.798 0.458486 84.9867 0.587792 85.1987 0.965109C86.8606 3.91158 88.5755 6.83049 90.2479 9.7706C91.7339 12.38 93.1817 15.0106 94.657 17.6264C95.7021 19.4791 96.7598 21.3254 97.8685 23.2714L97.8642 23.2756Z" fill="white"/>
<path d="M222.127 28.8887C230.411 28.8887 238.697 28.8993 246.981 28.8718C247.649 28.8696 247.88 29.0329 247.799 29.69C247.507 32.0811 246.941 34.3704 245.06 36.0514C243.822 37.1579 242.264 37.6772 240.668 38.0461C239.276 38.3662 237.864 38.54 236.427 38.54C225.961 38.5294 215.496 38.5103 205.033 38.5548C203.1 38.5633 201.563 37.8426 200.172 36.6322C198.436 35.1229 197.152 33.336 196.762 31.0021C196.726 30.7923 196.7 30.5866 196.694 30.3768C196.679 29.9062 196.27 29.3317 196.607 29.0074C196.942 28.6831 197.574 28.8929 198.074 28.8929C206.093 28.8866 214.11 28.8887 222.129 28.8887H222.127Z" fill="white"/>
<path d="M168.781 28.8843C176.562 28.8843 184.346 28.8928 192.128 28.8716C192.781 28.8716 193.039 28.9649 193.022 29.7152C192.965 32.4413 192.976 35.1694 193.01 37.8975C193.016 38.4465 192.851 38.5504 192.348 38.5483C179.066 38.5356 165.783 38.5419 152.501 38.525C151.106 38.525 149.911 37.8466 148.796 37.0899C146.125 35.2796 144.652 32.7953 144.611 29.5117C144.605 28.9585 144.772 28.8822 145.275 28.8843C153.109 28.9013 160.944 28.897 168.781 28.897V28.8864V28.8843Z" fill="white"/>
<path d="M24.1135 28.8865C31.573 28.8865 39.0324 28.895 46.4897 28.8738C47.1172 28.8738 47.3143 29.0328 47.2571 29.6624C47.0366 32.0874 46.4685 34.3958 44.7833 36.24C43.7425 37.3783 42.2905 37.8785 40.8151 38.2029C39.2868 38.5399 37.7224 38.5399 36.158 38.5399C24.7261 38.5272 13.2943 38.5272 1.86239 38.5463C1.19043 38.5463 0.919097 38.4721 0.940295 37.6729C1.00601 35.0041 0.98269 32.3332 0.944534 29.6645C0.936055 29.0413 1.10564 28.8717 1.73097 28.8738C9.1904 28.895 16.6498 28.8886 24.1093 28.8886L24.1135 28.8865Z" fill="white"/>
<path d="M116.895 23.2755C114.913 23.2755 112.887 23.2755 110.858 23.2755C108.609 23.2755 106.362 23.2649 104.113 23.2882C103.655 23.2924 103.409 23.1504 103.183 22.7455C100.944 18.7625 98.6781 14.7964 96.427 10.8219C94.5722 7.54686 92.711 4.27395 90.8859 0.981964C90.5107 0.303641 91.1615 0.477461 91.4582 0.475341C95.4434 0.464742 99.4285 0.509257 103.412 0.445665C104.418 0.428706 104.859 0.772108 105.317 1.65393C107.106 5.0837 109.025 8.44352 110.884 11.8351C111.969 13.8171 113.027 15.816 114.106 17.8023C115.009 19.4642 115.929 21.1176 116.825 22.7816C116.889 22.9003 117.061 23.0296 116.895 23.2734V23.2755Z" fill="white"/>
<path d="M121.449 23.2754C122.536 21.2807 123.549 19.409 124.575 17.5436C126.299 14.4064 128.033 11.2733 129.758 8.13822C131.062 5.76833 132.37 3.40268 133.648 1.02006C133.858 0.627908 134.059 0.454088 134.534 0.458328C138.731 0.483765 142.93 0.492244 147.127 0.464687C147.882 0.460447 147.905 0.630028 147.558 1.22144C146.112 3.6952 144.692 6.1838 143.276 8.6724C141.845 11.1886 140.435 13.7174 139.005 16.2357C137.731 18.4784 136.433 20.7084 135.168 22.9553C135 23.2521 134.79 23.2776 134.515 23.2776C130.208 23.2754 125.9 23.2776 121.451 23.2776L121.449 23.2754Z" fill="white"/>
<path d="M131.848 28.9098C129.989 32.0852 128.198 35.1376 126.424 38.1986C126.265 38.472 126.093 38.5314 125.803 38.5314C121.415 38.525 117.027 38.5271 112.639 38.5335C112.385 38.5335 112.23 38.4996 112.086 38.2325C110.509 35.3199 108.908 32.4201 107.318 29.516C107.221 29.3359 107.168 29.1302 107.081 28.9098H131.848Z" fill="white"/>
<path d="M65.9936 28.8886C64.8595 31.1462 63.806 33.2447 62.7525 35.3433C62.2967 36.2527 61.8261 37.1557 61.3916 38.0757C61.2411 38.3958 61.0863 38.5441 60.6921 38.542C56.3805 38.523 52.0689 38.5314 47.7594 38.5272C47.5898 38.5272 47.3694 38.6289 47.2697 38.4C47.1828 38.1986 47.3482 38.0714 47.4393 37.9082C48.7196 35.6168 49.9851 33.3168 51.2506 31.0169C51.5792 30.4191 51.9078 29.8213 52.2173 29.2151C52.3254 29.0031 52.4483 28.8844 52.7006 28.8844C57.0821 28.8886 61.4615 28.8865 65.9978 28.8865L65.9936 28.8886Z" fill="white"/>
<path d="M98.392 38.5335C96.2765 38.5335 94.161 38.5123 92.0476 38.5484C91.5643 38.5569 91.3353 38.383 91.1361 37.9824C89.7434 35.1801 88.3359 32.3862 86.9262 29.5924C86.6507 29.0455 86.7503 28.8801 87.4032 28.8844C91.4667 28.9098 95.5324 28.9013 99.596 28.8801C100.054 28.878 100.272 29.0285 100.491 29.4334C102.03 32.3036 103.581 35.1695 105.19 38.0015C105.495 38.5378 105.389 38.542 104.9 38.5399C102.731 38.5293 100.563 38.5357 98.3941 38.5335H98.392Z" fill="white"/>
<path d="M275.975 29.0539C279.093 29.0539 282.027 29.0539 284.961 29.0539C285.976 29.0539 286.996 29.0942 288.009 29.0412C288.626 29.0094 289.035 29.2235 289.469 29.6453C292.337 32.4264 295.284 35.127 298.095 37.9675C298.184 38.0565 298.328 38.0904 298.491 38.1752C298.071 38.4805 297.772 38.3618 297.499 38.3618C293.647 38.3702 289.794 38.3681 285.942 38.3702C285.565 38.3702 285.245 38.3406 284.939 38.0332C282.01 35.074 279.059 32.136 275.975 29.0539Z" fill="white"/>
<path d="M257.618 38.5335C255.88 38.5335 254.139 38.5102 252.401 38.5483C251.888 38.5589 251.784 38.3999 251.788 37.9272C251.81 35.1461 251.81 32.3671 251.795 29.586C251.793 29.1769 251.892 29.0433 252.323 29.0454C255.882 29.0624 259.441 29.0582 262.998 29.0454C263.386 29.0454 263.553 29.1069 263.549 29.5605C263.528 32.3883 263.53 35.2161 263.553 38.0438C263.557 38.5017 263.371 38.5441 262.996 38.5398C261.202 38.5229 259.411 38.5335 257.618 38.5335Z" fill="white"/>
</svg>
