<svg width="240" height="103" viewBox="0 0 240 103" fill="none" xmlns="http://www.w3.org/2000/svg">
<g clip-path="url(#clip0_23_228)">
<path d="M119.817 103C80.5269 103 41.2368 103 1.94681 103C0.930296 103 0.421367 102.492 0.420019 101.476C0.417997 67.917 0.420019 34.3578 0.395752 0.798687C0.395752 0.0224695 0.721332 0 1.30576 0C32.07 0.0163414 62.8363 0.0245121 93.6006 0.0265548C141.483 0.0265548 189.368 0.0245121 237.25 0.0224695C238.682 0.0224695 239.397 0.753748 239.396 2.21631C239.396 35.4017 239.396 68.585 239.396 101.77C239.396 103.008 239.398 103.002 237.889 103C214.571 102.998 191.252 102.998 167.934 102.998C151.894 102.998 135.855 102.998 119.815 102.998V103.002L119.817 103ZM119.902 3.8913V3.88313C104.197 3.88313 88.4945 3.88313 72.7898 3.88313C50.5816 3.88313 28.3734 3.88926 6.16519 3.88926C4.22182 3.88926 4.22182 3.87496 4.22182 5.83389C4.22182 35.3118 4.22182 64.7897 4.22182 94.2676C4.22182 95.63 4.238 96.9904 4.21576 98.3529C4.20564 98.9964 4.43416 99.2619 5.09947 99.2354C6.20968 99.1925 7.32393 99.2231 8.43616 99.2231C83.6876 99.2231 158.941 99.2231 234.193 99.2231C235.608 99.2231 235.612 99.2231 235.612 97.7687C235.616 67.2368 235.618 36.7028 235.618 6.17093C235.618 3.52566 235.841 3.89947 233.339 3.89947C195.527 3.8913 157.716 3.89334 119.906 3.89334L119.902 3.8913Z" fill="white"/>
<path d="M158.286 78.2958C154.076 78.2958 149.863 78.2938 145.653 78.2999C145.034 78.2999 144.545 78.1692 144.019 77.7259C141.465 75.5791 139.034 73.2974 136.626 70.9892C136.169 70.55 134.187 70.2579 133.675 70.5602C133.37 70.7399 133.447 71.028 133.447 71.2833C133.441 72.5763 133.431 73.8693 133.455 75.1623C133.475 76.2409 133.908 76.6923 134.976 76.7985C135.41 76.8414 135.851 76.8414 136.288 76.8721C136.729 76.9047 137.218 76.9109 137.236 77.5298C137.255 78.1835 136.678 78.1651 136.296 78.1957C135.329 78.2713 134.357 78.1773 133.384 78.1875C128.769 78.2345 124.155 78.2059 119.54 78.2182C118.682 78.2202 118.102 77.685 117.536 77.1785C115.172 75.0704 112.838 72.9256 110.49 70.7992C110.151 70.4928 108.163 70.3375 107.756 70.55C107.491 70.6868 107.491 70.9258 107.493 71.1587C107.497 72.5865 107.469 74.0184 107.538 75.4442C107.574 76.2 108.052 76.6923 108.834 76.774C109.402 76.8333 109.977 76.8475 110.549 76.8782C110.935 76.9007 111.222 77.0947 111.247 77.4787C111.275 77.92 110.976 78.1446 110.555 78.1937C110.355 78.2161 110.153 78.2284 109.95 78.2284C106.885 78.2264 103.819 78.2202 100.753 78.2141C100.282 78.2141 99.7725 78.2938 99.7664 77.5564C99.7624 76.8557 100.211 76.823 100.721 76.8516C103.03 76.9762 103.572 76.2572 103.566 73.9061C103.56 70.7747 103.58 67.6453 103.58 64.5139C103.58 62.8041 102.911 62.128 101.228 62.1015C101.093 62.0994 100.958 62.1055 100.824 62.0953C100.377 62.0586 99.7927 62.2138 99.7806 61.4764C99.7664 60.6838 100.389 60.8963 100.808 60.9004C105.218 60.933 109.635 60.7512 114.039 61.0822C115.902 61.2231 117.696 61.7317 119.111 63.0166C120.816 64.5649 120.527 67.5207 117.999 68.6973C117.222 69.0588 116.48 69.5245 115.574 69.5634C115.245 69.5777 114.885 69.8412 114.792 70.1374C114.632 70.6378 115.232 70.5152 115.425 70.7399C116.42 71.8879 117.71 72.7152 118.727 73.8244C121.103 76.4206 124.066 77.1029 127.427 76.8516C129.03 76.7332 129.487 76.1428 129.499 74.5148C129.524 71.2138 129.536 67.9129 129.499 64.6119C129.477 62.5059 128.818 61.9299 127.097 62.0994C126.866 62.1219 126.624 62.0953 126.393 62.0565C126.015 61.9912 125.784 61.7889 125.835 61.3579C125.882 60.9494 126.161 60.9044 126.488 60.8861C127.762 60.8187 129.032 60.9698 130.312 60.9208C133.611 60.7941 136.915 60.8942 140.207 61.1087C141.734 61.2088 143.212 61.6541 144.533 62.5468C145.839 63.4312 146.43 64.5935 146.197 66.1643C146.003 67.4798 145.004 68.111 144.015 68.7647C143.242 69.2753 142.32 69.3223 141.501 69.6696C141.006 69.8779 140.541 70.0005 141.315 70.7073C143.008 72.2515 144.658 73.8509 146.46 75.2563C147.633 76.1714 148.947 76.919 150.587 76.8149C151.817 76.7372 153.048 77.0028 154.3 76.8026C155.198 76.6576 155.669 76.1939 155.677 75.3625C155.712 71.4488 155.716 67.535 155.683 63.6233C155.675 62.7081 155.151 62.1219 154.189 62.0381C153.619 61.9891 153.05 61.936 152.482 61.8727C152.217 61.8441 152.039 61.699 152.068 61.4069C152.098 61.1108 152.308 61.0311 152.571 61.0311C157.685 61.0229 162.802 61.0127 167.916 61.0045C168.994 61.0045 170.076 61.0474 171.147 60.9759C172.007 60.9187 172.28 61.268 172.26 62.0851C172.241 62.7939 172.326 63.5068 172.375 64.2177C172.401 64.5956 172.318 64.9122 171.908 64.998C171.564 65.0695 171.362 64.902 171.224 64.5629C170.642 63.133 169.536 62.5488 168.039 62.5508C165.614 62.5549 163.188 62.5263 160.763 62.4977C160.191 62.4916 159.89 62.7388 159.805 63.3087C159.602 64.6957 159.598 66.0826 159.764 67.4737C159.833 68.0497 160.106 68.3194 160.684 68.3132C162.735 68.2928 164.789 68.3439 166.838 68.252C167.891 68.205 168.526 67.4083 168.994 66.5055C169.131 66.2399 169.216 65.9131 169.633 65.9948C170.029 66.0745 170.08 66.4176 170.082 66.7016C170.1 68.3664 170.092 70.0332 170.073 71.7C170.071 71.9676 170.005 72.2536 169.649 72.3006C169.323 72.3434 169.135 72.1596 169.028 71.89C168.357 70.2191 167 69.9331 165.418 69.9882C163.904 70.0413 162.385 70.0352 160.87 69.9944C160.092 69.9739 159.748 70.2681 159.758 71.0525C159.774 72.3802 159.77 73.7059 159.758 75.0337C159.75 76.0243 160.328 76.5105 161.2 76.5085C163.821 76.5003 166.454 76.7127 169.06 76.2552C170.363 76.0264 171.42 75.3503 172.304 74.3718C172.531 74.1226 172.741 73.8489 173.004 73.6446C173.372 73.3566 173.859 73.2402 174.235 73.4914C174.702 73.804 174.249 74.1369 174.084 74.4311C173.465 75.5362 173.145 76.7904 172.316 77.8056C171.978 78.2182 171.685 78.3122 171.232 78.3101C166.921 78.3019 162.607 78.306 158.296 78.306V78.2979L158.286 78.2958ZM133.443 65.7211H133.439C133.439 66.5034 133.469 67.2858 133.429 68.0661C133.398 68.6339 133.586 68.8464 134.161 68.8627C135.815 68.9117 137.449 68.8423 139.05 68.3623C140.476 67.9353 141.342 66.8609 141.467 65.6312C141.633 63.9868 139.912 62.9573 138.452 62.6795C137.038 62.4099 135.57 62.5161 134.122 62.6203C133.604 62.6571 133.418 62.8695 133.435 63.3781C133.459 64.1584 133.441 64.9408 133.441 65.7231L133.443 65.7211ZM107.479 65.7762H107.471C107.471 66.4912 107.497 67.2061 107.463 67.919C107.429 68.6462 107.783 68.8403 108.438 68.8729C110.007 68.9485 111.524 68.6625 113.022 68.2663C114.652 67.8373 115.463 66.6158 115.247 65.0715C115.097 64.0073 113.694 62.892 112.314 62.6795C110.935 62.4671 109.564 62.606 108.189 62.6652C107.653 62.6877 107.481 62.9533 107.481 63.4312C107.481 64.2136 107.481 64.9959 107.481 65.7762H107.479Z" fill="white"/>
<path d="M80.5127 31.204C80.1062 31.7085 80.1912 32.26 80.1811 32.7319C80.1265 35.5202 80.0213 38.3125 80.2296 41.0967C80.3469 42.6675 80.9232 43.1373 82.4682 43.2415C82.9677 43.2742 83.8494 42.9351 83.8555 43.7297C83.8615 44.557 82.9697 44.2036 82.4844 44.2117C80.2276 44.2526 77.9687 44.2301 75.7119 44.2117C75.3398 44.2097 74.8019 44.3404 74.7898 43.7174C74.7776 43.0781 75.3115 43.2578 75.6836 43.2231C76.0173 43.1925 76.3671 43.2088 76.6826 43.1107C77.5441 42.8432 78.1649 42.4959 78.1346 41.3132C78.0395 37.6405 78.1002 33.9616 78.0941 30.2868C78.0921 28.7793 78.0233 28.7058 76.5835 28.4035C76.1588 28.3136 75.7402 28.1829 75.3176 28.0868C75.0446 28.0256 74.7473 27.9643 74.7635 27.617C74.7817 27.2248 75.1093 27.1533 75.4227 27.139C75.8939 27.1186 76.3651 27.1207 76.8383 27.1186C77.8838 27.1145 78.9374 27.2003 79.9707 27.0921C81.5723 26.9246 82.632 27.4883 83.5521 28.8692C85.635 31.9904 87.8939 34.9911 90.0577 38.0551C90.3448 38.4616 90.6947 38.8129 90.9535 39.2542C91.1719 39.6239 91.5804 39.775 91.9788 39.199C93.5015 36.999 95.1335 34.8767 96.6279 32.6584C97.7118 31.0487 99.0283 29.6107 99.9727 27.8989C100.278 27.3474 100.79 27.0104 101.463 27.0144C103.35 27.0226 105.237 27.0247 107.123 27.0328C107.532 27.0328 108.027 27.0287 108.096 27.5415C108.181 28.1767 107.605 28.0256 107.245 28.1175C104.405 28.8426 104.66 28.0297 104.638 31.3224C104.616 34.5907 104.63 37.857 104.638 41.1253C104.642 42.4918 105.251 43.0924 106.648 43.1516C107.051 43.1679 107.463 43.1598 107.847 43.2578C108.074 43.315 108.492 43.2517 108.407 43.7787C108.343 44.1791 108.072 44.1423 107.829 44.1893C107.633 44.226 107.427 44.2281 107.226 44.2281C104.126 44.2322 101.026 44.2342 97.9262 44.2363C97.8251 44.2363 97.724 44.226 97.6228 44.224C97.273 44.2158 96.9312 44.2097 96.9191 43.7154C96.907 43.2415 97.2002 43.1598 97.5784 43.1618C97.9161 43.1618 98.2518 43.1577 98.5895 43.1414C99.6896 43.0903 100.337 42.5511 100.351 41.4725C100.389 38.4105 100.363 35.3465 100.357 32.2846C100.357 32.0149 100.361 31.686 100.019 31.6309C99.7037 31.5798 99.728 31.9271 99.6006 32.1068C98.8766 33.118 98.1284 34.1107 97.3984 35.1177C96.2417 36.7131 95.089 38.3125 93.9424 39.916C93.0041 41.2274 92.1021 42.5694 91.1294 43.8543C90.7311 44.3792 90.1406 44.4405 89.7159 43.8543C88.0536 41.5665 86.4338 39.2501 84.7776 36.9582C83.3883 35.034 82.09 33.0383 80.5127 31.204Z" fill="white"/>
<path d="M145.222 26.9286C146.733 26.996 149.137 26.7121 151.503 27.1635C153.127 27.474 154.765 27.6599 156.266 28.5668C158.15 29.7066 158.814 32.5439 157.242 33.9309C156.142 34.9032 154.791 35.5507 153.321 35.7938C152.458 35.9368 152.298 36.1942 152.984 36.7988C155.149 38.7067 157.145 40.8495 159.641 42.3161C160.496 42.8186 161.574 43.1985 162.676 43.1536C163.056 43.1393 163.469 43.1801 163.477 43.701C163.487 44.2219 163.062 44.2832 162.692 44.2852C160.771 44.2954 158.852 44.2852 156.931 44.275C156.235 44.2709 155.758 43.8297 155.275 43.4028C152.939 41.3356 150.605 39.2664 148.256 37.2114C147.981 36.9704 147.645 36.7743 147.303 36.6477C146.08 36.1942 145.249 36.7764 145.24 38.0673C145.234 39.0213 145.228 39.9731 145.246 40.9271C145.275 42.4162 145.916 43.0678 147.414 43.1556C147.617 43.1679 147.821 43.1475 148.021 43.1761C148.377 43.2271 148.905 42.9718 148.947 43.6357C148.99 44.3016 148.512 44.2893 148.059 44.2873C144.858 44.2832 141.657 44.2791 138.458 44.2709C138.258 44.2709 138.019 44.2975 137.869 44.1994C137.623 44.0401 137.372 43.7868 137.429 43.462C137.489 43.1148 137.829 43.1597 138.092 43.1597C138.698 43.1577 139.295 43.1413 139.884 42.9371C140.757 42.6348 141.22 42.0342 141.222 41.115C141.232 37.5076 141.234 33.9003 141.212 30.2908C141.206 29.1061 140.626 28.5137 139.451 28.3871C139.048 28.3442 138.636 28.2788 138.241 28.334C137.637 28.4198 137.386 28.2237 137.392 27.6027C137.398 26.9511 137.815 26.9245 138.284 26.9266C140.306 26.9266 142.328 26.9266 145.224 26.9266L145.222 26.9286ZM145.16 31.9556H145.166C145.166 32.7033 145.182 33.4529 145.162 34.2005C145.139 34.94 145.372 35.2832 146.199 35.3097C148.09 35.3669 149.879 34.9155 151.56 34.1638C152.434 33.7736 153.269 33.0546 153.317 31.8882C153.362 30.826 152.698 30.0641 151.932 29.5943C150.217 28.5403 148.284 28.3626 146.304 28.5873C145.491 28.6792 145.103 29.0652 145.151 29.917C145.19 30.5952 145.16 31.2775 145.16 31.9577V31.9556Z" fill="white"/>
<path d="M85.2912 60.4654C88.8261 60.3735 92.2255 61.307 95.2548 63.6438C98.5227 66.1624 99.0526 71.1853 96.2275 74.2575C93.8858 76.8048 90.909 77.9997 87.54 78.3919C85.5824 78.6207 83.6108 78.6064 81.6997 78.3102C78.4884 77.8118 75.4328 76.6454 73.4854 73.8572C70.5876 69.7085 72.2054 64.9736 76.2802 62.7368C79.902 60.7473 81.2953 60.4838 85.2912 60.4654ZM84.9758 76.7435C85.6856 76.7435 86.4763 76.8538 87.2286 76.723C89.633 76.3043 91.6471 75.2074 92.5855 72.797C93.451 70.5766 93.3357 68.2827 92.4722 66.0766C91.8291 64.4343 90.5349 63.3394 88.9616 62.698C87.1173 61.9443 85.1335 62.0239 83.1942 62.1996C82.3226 62.2793 81.4429 62.5305 80.628 62.9513C78.7008 63.9461 77.6755 65.5762 77.176 67.6433C76.6057 70.0047 77.0587 72.1924 78.4682 74.0778C80.0496 76.196 82.2538 77.1295 84.9758 76.7435Z" fill="white"/>
<path d="M205.319 26.7468C208.185 26.6815 210.929 27.2534 213.438 28.6404C215.184 29.6045 216.674 30.9384 217.602 32.7748C218.644 34.8399 218.035 38.5065 216.393 40.3102C214.919 41.928 213.109 42.9657 211.056 43.6908C207.582 44.9185 204.029 44.9961 200.551 44.128C197.602 43.3926 194.745 42.073 193.258 39.1295C192.433 37.4934 191.986 35.7734 192.65 33.7246C193.612 30.7423 195.774 29.3083 198.296 28.1297C200.514 27.092 202.888 26.7366 205.321 26.7448L205.319 26.7468ZM205.455 43.1843C206.512 43.4539 207.819 42.9208 209.034 42.4714C210.925 41.7748 212.365 40.5206 212.955 38.3411C213.44 36.5517 213.398 34.8992 212.906 33.1547C212.575 31.974 211.966 31.0467 211.115 30.203C209.493 28.5975 207.446 28.2768 205.347 28.3095C204.124 28.3299 202.828 28.2176 201.671 28.7364C199.724 29.6127 198.233 30.8771 197.539 33.1016C196.828 35.3853 196.996 37.5077 198.106 39.5034C199.618 42.2222 202.172 43.1291 205.455 43.1822V43.1843Z" fill="white"/>
<path d="M185.691 34.6887C187.072 34.6887 188.454 34.6826 189.837 34.6928C190.225 34.6969 190.739 34.605 190.775 35.1912C190.812 35.7775 190.282 35.6243 189.956 35.6774C188.383 35.9327 187.926 36.4475 187.875 38.1981C187.837 39.4911 187.809 40.7882 187.887 42.0771C187.946 43.0147 187.44 43.3538 186.706 43.554C183.507 44.4241 180.247 44.8449 176.947 44.5814C175.297 44.4507 173.657 44.2342 172.017 43.7644C170.302 43.2721 168.749 42.6245 167.35 41.5644C163.807 38.8844 163.062 35.2239 165.778 31.6472C167.562 29.2961 170.011 28.1031 172.82 27.3412C175.451 26.6283 178.049 26.6692 180.702 26.804C182.027 26.8714 183.234 27.4127 184.532 27.6027C185.329 27.7191 185.695 27.568 186.128 27.0532C186.595 26.4976 187.087 26.5262 187.212 27.1513C187.513 28.671 187.98 30.1765 187.782 31.7636C187.744 32.0721 187.782 32.3989 187.408 32.5092C187.028 32.6236 186.789 32.4459 186.585 32.1109C185.726 30.6933 184.63 29.6025 183.024 28.9815C181.076 28.2277 179.085 28.2155 177.076 28.3033C175.612 28.3666 174.169 28.6056 172.858 29.3778C170.371 30.8444 168.773 32.881 169.018 35.9143C169.214 38.3533 170.514 40.208 172.563 41.4909C175.028 43.0331 177.75 43.4191 180.579 43.1107C181.542 43.0065 182.484 42.7144 183.43 42.4795C183.92 42.359 183.982 41.9362 183.978 41.5113C183.962 40.3592 183.924 39.2051 183.916 38.053C183.902 36.4945 183.384 35.9143 181.881 35.706C181.406 35.6406 180.557 35.9062 180.605 35.1381C180.652 34.4191 181.469 34.7275 181.96 34.6969C182.767 34.6479 183.578 34.6724 184.385 34.6683C184.824 34.6663 185.26 34.6683 185.699 34.6683C185.699 34.6744 185.699 34.6785 185.699 34.6846L185.691 34.6887Z" fill="white"/>
<path d="M197.734 78.2203C196.286 78.2203 194.838 78.204 193.39 78.2306C192.925 78.2387 192.573 78.0774 192.417 77.6729C192.27 77.2889 192.235 76.8579 192.856 76.8109C193.192 76.7864 193.533 76.77 193.857 76.6883C194.65 76.4922 194.803 76.0939 194.383 75.3688C192.49 72.0964 193.095 72.8154 189.857 72.748C188.011 72.7092 186.16 72.7419 184.314 72.7133C183.584 72.7031 183.026 72.8828 182.646 73.5814C182.324 74.1718 181.869 74.6865 181.511 75.2585C181.058 75.9816 181.267 76.4922 182.088 76.6699C182.48 76.7557 182.888 76.7598 183.291 76.7946C183.645 76.8252 183.851 77.0131 183.893 77.3645C183.93 77.6709 183.774 77.8772 183.519 78.0263C183.216 78.204 182.888 78.2306 182.547 78.2306C180.46 78.2244 178.373 78.2306 176.284 78.2306C175.803 78.2306 175.259 78.2591 175.22 77.5953C175.182 76.9539 175.732 76.7945 176.189 76.7986C177.655 76.815 178.397 75.8284 179.109 74.7784C180.692 72.4457 182.274 70.1109 183.845 67.768C185.356 65.5169 186.858 63.2577 188.355 60.9944C188.759 60.3837 189.562 60.398 189.952 61.0189C191.076 62.8063 192.187 64.6038 193.362 66.3565C195.04 68.8628 196.751 71.3467 198.322 73.9246C198.599 74.3801 198.909 74.8254 199.258 75.2278C200.051 76.1409 200.947 76.8946 202.261 76.8374C202.743 76.817 203.091 77.0907 203.089 77.534C203.087 78.0488 202.702 78.2367 202.179 78.2285C200.698 78.202 199.216 78.2203 197.736 78.2203H197.734ZM188.708 71.0485C189.463 71.0485 190.102 71.0485 190.741 71.0485C191.317 71.0505 191.665 70.9729 191.303 70.2355C190.512 68.6259 189.392 67.2409 188.439 65.7416C188.15 65.2841 187.932 65.4699 187.699 65.8172C186.694 67.3165 185.679 68.8097 184.664 70.3029C184.26 70.8973 184.638 71.0751 185.107 71.0117C186.355 70.8442 187.586 71.2201 188.71 71.0485H188.708Z" fill="white"/>
<path d="M68.4885 44.1995C66.9738 44.1995 65.4571 44.2077 63.9425 44.1934C63.629 44.1914 63.2185 44.2628 63.2044 43.7358C63.1922 43.1904 63.5886 43.1802 63.9668 43.1496C64.2357 43.1271 64.5128 43.1455 64.7696 43.0781C65.6513 42.8432 65.8515 42.2917 65.3823 41.5236C64.9475 40.8107 64.5492 40.0733 64.1063 39.3645C63.805 38.8824 63.4026 38.621 62.7736 38.6271C60.2135 38.6557 57.6533 38.6659 55.0952 38.5965C54.2256 38.5719 53.71 38.9519 53.2792 39.6015C52.895 40.1795 52.529 40.7699 52.1549 41.3561C51.5846 42.2529 51.8677 42.929 52.9152 43.1128C53.2772 43.1761 53.6534 43.1578 54.0214 43.1945C54.3268 43.2252 54.5229 43.3906 54.5229 43.7195C54.5229 44.0586 54.3227 44.2138 54.0093 44.2138C51.5179 44.2138 49.0265 44.2118 46.5331 44.2016C46.2884 44.2016 46.0619 44.1178 46.0336 43.8114C46.0032 43.503 46.1205 43.2088 46.4218 43.1904C49.071 43.0229 49.9951 40.8026 51.2327 39.0193C53.4956 35.7612 55.6736 32.4439 57.8697 29.1409C58.2782 28.5281 58.5896 27.8561 59.1134 27.3168C59.7827 26.6304 60.2398 26.6162 60.7858 27.4373C62.258 29.6454 63.6695 31.8924 65.1538 34.0903C66.992 36.8091 68.5896 39.7056 70.7352 42.1997C71.3075 42.8657 72.2134 43.1639 73.1356 43.2517C73.4187 43.2783 73.9222 43.1149 73.9162 43.6419C73.9101 44.1893 73.4571 44.224 73.0304 44.224C71.5137 44.222 69.9991 44.224 68.4824 44.224C68.4824 44.2179 68.4824 44.2118 68.4824 44.2057L68.4885 44.1995ZM59.2752 37.2871C60.1366 37.2871 60.8768 37.3034 61.6169 37.283C62.3166 37.2626 62.5613 36.9603 62.1285 36.3127C61.1801 34.8849 60.1993 33.4775 59.3015 32.019C58.9941 31.5227 58.7979 31.5553 58.5189 31.9455C57.445 33.4448 56.3611 34.938 55.3399 36.4721C55.1417 36.7683 55.075 37.3647 55.7767 37.2565C56.99 37.0685 58.1892 37.4832 59.2772 37.2891L59.2752 37.2871Z" fill="white"/>
<path d="M34.3228 26.7713C36.5897 26.6998 38.6403 27.2105 40.6787 27.7742C41.4835 27.9969 42.0134 27.5353 42.5351 27.0797C43.0326 26.6467 43.5017 26.6651 43.5422 27.3249C43.6392 28.9243 44.2479 30.4461 44.1711 32.0618C44.1549 32.3846 44.2864 32.789 43.8556 32.9361C43.4431 33.077 43.2773 32.7625 43.0811 32.4622C41.9851 30.7913 40.5958 29.4942 38.6686 28.8242C38.1853 28.6567 37.7222 28.5096 37.2207 28.4688C35.5382 28.3319 33.8476 28.289 32.1772 28.5014C29.6878 28.8181 27.7526 30.1662 26.5635 32.3458C25.0043 35.2055 25.8921 39.1928 28.4866 41.1027C29.5422 41.8789 30.7819 42.4386 32.1711 42.598C34.2844 42.839 36.3814 42.935 38.4846 42.5653C40.0093 42.2977 41.2409 41.4398 42.4926 40.5941C42.9719 40.2693 43.2975 39.6688 43.9729 39.6626C44.2459 39.6606 44.5371 39.6626 44.6908 39.9343C44.8465 40.208 44.5978 40.3592 44.4522 40.5369C43.2126 42.0526 41.6231 43.0045 39.8031 43.6765C36.1408 45.0287 32.4078 44.994 28.7131 44.1116C25.8092 43.4171 23.1985 41.8851 21.7971 39.1336C21.0792 37.7262 20.885 36.0369 21.3158 34.2271C21.9407 31.6063 23.7566 30.1703 25.6616 28.7935C26.4502 28.2236 27.4917 27.7763 28.4826 27.5843C30.4502 27.2043 32.4057 26.6324 34.3208 26.7713H34.3228Z" fill="white"/>
<path d="M131.528 44.2199C130.08 44.2199 128.632 44.2261 127.184 44.2159C126.786 44.2138 126.272 44.2465 126.268 43.6786C126.264 43.1332 126.769 43.2599 127.117 43.2252C128.711 43.0679 128.996 42.4428 128.102 41.0456C127.671 40.3736 127.216 39.7138 126.788 39.0397C126.48 38.5556 125.983 38.5679 125.53 38.5638C122.87 38.5413 120.209 38.576 117.55 38.5311C116.604 38.5147 116.357 39.3216 115.872 39.818C115.457 40.2388 115.222 40.8373 114.891 41.3459C114.608 41.7769 114.498 42.2569 114.727 42.6981C114.959 43.1455 115.433 43.2578 115.932 43.2803C116.44 43.3048 117.315 42.8861 117.323 43.7031C117.334 44.6224 116.385 44.1954 115.874 44.2077C113.855 44.2588 111.833 44.2322 109.813 44.2097C109.483 44.2056 108.998 44.3527 108.941 43.7849C108.883 43.1945 109.356 43.2231 109.746 43.1087C110.943 42.7574 111.975 42.212 112.709 41.0803C114.555 38.2369 116.496 35.4589 118.383 32.642C119.447 31.0528 120.476 29.4412 121.524 27.8418C122.436 26.4486 123.105 26.4343 124.029 27.854C125.348 29.8763 126.593 31.9475 127.928 33.9575C129.653 36.5558 131.21 39.2685 133.115 41.7422C133.797 42.6267 134.759 43.0699 135.859 43.217C136.191 43.2619 136.682 43.1128 136.672 43.7072C136.66 44.3568 136.142 44.2016 135.772 44.2056C134.359 44.2199 132.943 44.2118 131.53 44.2118C131.53 44.2118 131.53 44.2138 131.53 44.2159L131.528 44.2199ZM122.049 37.1523C122.82 37.1523 123.59 37.1441 124.361 37.1543C125.004 37.1645 125.245 36.9664 124.917 36.3025C124.173 34.8032 123.006 33.5858 122.209 32.1171C121.948 31.637 121.562 31.6636 121.214 32.1927C120.276 33.6184 119.295 35.0136 118.316 36.4108C118.189 36.5926 117.853 36.707 118.023 36.9705C118.163 37.189 118.48 37.2932 118.741 37.2279C119.839 36.9541 120.947 37.1441 122.051 37.1502L122.049 37.1523Z" fill="white"/>
<path d="M59.4835 78.3837C56.0234 78.5574 53.2631 77.8567 50.62 76.627C47.3521 75.1052 45.4208 70.9504 46.5695 67.5024C47.3986 65.0165 49.255 63.3803 51.5866 62.2405C54.7272 60.7044 58.0416 60.2958 61.4612 60.5614C62.7251 60.6594 63.9526 60.9903 65.1538 61.4459C65.9789 61.7584 66.8545 61.9484 67.4531 60.9372C67.6573 60.59 67.9971 60.5001 68.4238 60.5961C68.899 60.7044 68.6765 61.0639 68.7615 61.3131C69.2731 62.8328 69.0466 64.4159 69.1396 65.9704C69.1558 66.2482 69.1599 66.5546 68.812 66.6179C68.4986 66.6751 68.264 66.5771 68.084 66.2359C66.6139 63.4579 64.167 62.3079 61.1842 62.1567C59.3419 62.0627 57.4491 61.9259 55.712 62.6633C54.3591 63.2393 53.0608 63.9563 52.2236 65.3474C50.9011 67.5453 50.6079 69.8515 51.4248 72.2251C51.9547 73.7632 53.0831 74.9214 54.6078 75.5648C57.7848 76.9048 61.0507 77.1561 64.3732 76.2042C65.7807 75.8018 66.9435 74.9132 68.1164 74.0655C68.3611 73.8899 68.5876 73.6692 68.8585 73.5589C69.1679 73.4343 69.5805 73.3588 69.7827 73.6897C69.995 74.0369 69.7038 74.282 69.445 74.5374C67.7686 76.2042 65.8232 77.2787 63.5279 77.9303C61.989 78.3674 60.4642 78.1754 59.4855 78.3837H59.4835Z" fill="white"/>
<path d="M163.281 55.569C165.147 54.9582 165.877 56.623 166.941 57.6443C167.519 58.1979 168.003 58.8516 168.531 59.4603C168.664 59.6135 168.84 59.781 168.717 59.9914C168.567 60.2467 168.326 60.1384 168.09 60.0894C166.846 59.8382 165.736 59.1723 164.755 58.4941C163.119 57.3624 161.922 58.0386 160.632 58.9435C160.027 59.3663 159.394 59.7422 158.696 59.9873C158.49 60.0588 158.256 60.2794 158.059 60.0179C157.881 59.781 158.072 59.5461 158.211 59.3806C159.024 58.4103 159.92 57.5054 160.666 56.4882C161.339 55.571 162.171 55.3606 163.279 55.569H163.281Z" fill="white"/>
</g>
<defs>
<clipPath id="clip0_23_228">
<rect width="239" height="103" fill="white" transform="translate(0.395752)"/>
</clipPath>
</defs>
</svg>
