<svg width="245" height="89" viewBox="0 0 245 89" fill="none" xmlns="http://www.w3.org/2000/svg">
<g clip-path="url(#clip0_23_242)">
<path d="M122.424 0.0216272C162.662 0.0216272 202.898 0.0255595 243.136 0.00196611C244.081 0.00196611 244.398 0.149425 244.396 1.19343C244.361 30.0501 244.363 58.9067 244.392 87.7633C244.392 88.7483 244.166 89 243.152 89C162.644 88.9744 82.1364 88.9744 1.62849 89C0.628437 89 0.396283 88.766 0.398267 87.781C0.426046 58.891 0.424062 30.0009 0.400251 1.11282C0.400251 0.233967 0.602642 0 1.5134 0C41.817 0.0255595 82.1205 0.0216272 122.424 0.0216272ZM164.19 83.8193C188.701 83.8193 213.21 83.8193 237.721 83.8173C239.217 83.8173 239.017 83.9903 239.017 82.4961C239.021 57.3672 239.013 32.2383 239.045 7.10946C239.045 6.10674 238.791 5.89244 237.801 5.89244C188.747 5.918 139.693 5.918 90.6408 5.8944C89.6864 5.8944 89.3947 6.05759 89.3947 7.0839C89.4304 32.2777 89.4284 57.4714 89.4006 82.6652C89.4006 83.5873 89.5852 83.8429 90.5614 83.8429C115.104 83.8114 139.647 83.8193 164.192 83.8193H164.19ZM83.8369 48.0675V47.0982C83.8369 33.6697 83.825 20.2431 83.8607 6.81454C83.8627 5.83739 83.6444 5.57 82.6265 5.57196C57.4606 5.60342 32.2947 5.60342 7.12875 5.57196C6.13863 5.57196 5.88465 5.79217 5.88465 6.79292C5.91639 32.0791 5.91044 57.3672 5.91044 82.6553C5.91044 82.8185 5.9283 82.9837 5.90846 83.1449C5.84893 83.6384 6.0156 83.8586 6.55928 83.8272C7.24979 83.7859 7.95419 83.7505 8.63676 83.835C9.51776 83.9432 9.87889 83.6069 10.1626 82.7831C15.3653 67.6834 20.6076 52.5994 25.8221 37.5036C26.0344 36.8882 26.3043 36.6582 26.9988 36.668C30.2668 36.7132 33.5388 36.7034 36.8068 36.6759C37.4199 36.67 37.7037 36.8292 37.9199 37.4446C39.0529 40.673 40.2534 43.8797 41.44 47.0904C41.555 47.403 41.557 47.7942 41.94 47.9908C42.1106 47.6035 42.2594 47.2417 42.4301 46.8898C44.6663 42.2537 47.7299 38.4041 52.6984 36.3868C56.3157 34.9182 60.1115 34.3657 63.9966 34.2497C73.1359 33.9783 80.545 39.0372 83.4837 47.5897C83.5432 47.7628 83.5511 47.9731 83.8369 48.0675ZM73.9991 57.4911C77.0052 57.4911 80.0113 57.4714 83.0154 57.5068C83.6682 57.5147 83.8587 57.3358 83.8448 56.6909C83.8031 54.8624 83.7952 53.03 83.8468 51.2015C83.8686 50.4701 83.6642 50.2538 82.9142 50.2656C80.174 50.3108 77.4318 50.2794 74.6896 50.2853C74.2789 50.2853 73.9693 50.2931 73.8344 49.7485C72.9911 46.3727 70.6358 44.3339 67.5007 43.1424C61.2584 40.7732 53.4901 44.4794 51.1785 50.9459C49.5316 55.5564 49.4919 60.3144 50.4483 65.0567C51.623 70.8842 55.1767 74.6238 61.4489 75.4201C68.1 76.2635 73.5824 72.5731 75.0289 66.0102C75.1936 65.2592 75.0329 65.1334 74.3205 65.1412C71.2827 65.1727 68.2428 65.1373 65.205 65.1668C64.5522 65.1727 64.2744 65.0508 64.2942 64.3233C64.3458 62.3317 64.3419 60.336 64.2942 58.3444C64.2784 57.6543 64.4887 57.4655 65.1792 57.4754C68.1178 57.5127 71.0585 57.4911 73.9991 57.4911ZM31.7748 83.8193C35.4416 83.8193 39.1085 83.8075 42.7734 83.8311C43.4202 83.835 43.5849 83.6935 43.3706 83.0564C42.4718 80.4002 41.5908 77.7381 40.7494 75.0662C40.5788 74.5235 40.3228 74.3721 39.7732 74.3741C34.5547 74.3938 29.3362 74.3938 24.1157 74.3741C23.5343 74.3721 23.2407 74.5275 23.0442 75.0957C22.1354 77.7125 21.2029 80.3235 20.2207 82.9149C19.933 83.6738 20.0599 83.8448 20.8755 83.837C24.5086 83.7996 28.1417 83.8213 31.7748 83.8213V83.8193ZM37.9199 66.6394C35.8861 60.3695 33.892 54.2254 31.8145 47.8257C29.7529 54.247 27.7726 60.4167 25.7765 66.6394H37.9199ZM65.4768 83.5519C66.0225 83.9097 66.3499 83.8114 66.6555 83.8134C69.4612 83.8232 72.2669 83.8272 75.0725 83.8134C75.7254 83.8095 76.5607 84.0946 76.9834 83.6915C77.4377 83.257 76.9655 82.4627 76.9139 81.8296C76.781 80.2233 76.5587 78.6268 76.3424 76.7747C73.5844 80.5516 70.1914 82.9444 65.4768 83.5539V83.5519Z" fill="#FCFCFD"/>
<path d="M107.024 62.9864C105.841 62.9864 104.72 62.9687 103.599 62.9943C103.123 63.0061 102.996 62.839 102.97 62.3769C102.853 60.1886 102.837 60.1886 105.079 60.1886C106.566 60.1886 108.052 60.2103 109.536 60.1768C110.082 60.165 110.27 60.3066 110.264 60.8748C110.234 63.5192 110.238 66.1656 110.264 68.81C110.27 69.3311 110.109 69.5277 109.594 69.4569C109.431 69.4353 109.26 69.4313 109.099 69.4569C108.145 69.6122 107.601 69.2976 107.613 68.2635C107.613 68.0865 107.48 67.9076 107.391 67.6874C107.246 67.77 107.111 67.8093 107.032 67.8978C103.903 71.3876 97.464 70.7702 95.0452 65.7822C93.3249 62.2334 93.5154 58.716 95.3865 55.2773C97.1921 51.9604 101.315 51.292 103.952 51.695C107.012 52.163 109.209 53.6434 110.109 56.7145C110.284 57.3102 110.219 57.5678 109.532 57.4872C109.173 57.4459 108.806 57.4577 108.445 57.4833C107.339 57.5658 106.576 57.4479 105.871 56.2446C104.437 53.7968 100.109 54.2647 98.6426 56.917C97.6188 58.7671 97.5969 60.7844 97.9243 62.8252C98.3509 65.4932 100.02 67.015 102.619 67.0759C104.831 67.127 106.458 65.6544 107.028 62.9805L107.024 62.9864Z" fill="#FCFCFD"/>
<path d="M181.208 61.152C182.819 61.8303 183.111 63.1397 183.188 64.5612C183.25 65.6681 183.101 66.7849 183.361 67.882C183.421 68.1336 183.5 68.3814 183.575 68.6291C183.659 68.9004 184.206 68.9437 184.014 69.2976C183.833 69.6318 183.417 69.4391 183.107 69.449C182.349 69.4725 181.583 69.4096 180.829 69.4706C180.153 69.5256 179.891 69.2307 179.783 68.631C179.565 67.4003 179.641 66.1557 179.587 64.9171C179.506 63.1161 179.198 62.7956 177.416 62.7583C176.228 62.7347 175.037 62.7642 173.851 62.7248C173.327 62.7072 173.174 62.8802 173.182 63.3914C173.21 65.155 173.17 66.9205 173.204 68.6841C173.216 69.2641 173.081 69.5158 172.442 69.4686C171.495 69.3998 170.277 69.7498 169.67 69.2858C169.094 68.8454 169.505 67.5752 169.501 66.6708C169.485 62.0977 169.509 57.5225 169.477 52.9493C169.473 52.2632 169.656 52.0725 170.35 52.0842C173.255 52.1354 176.162 52.1236 179.069 52.1393C180.976 52.1491 182.363 53.0594 183.192 54.6972C184.059 56.4097 184.057 58.1458 182.942 59.8071C182.54 60.4068 181.948 60.743 181.208 61.15V61.152ZM175.92 55.1239V55.1081C175.196 55.1081 174.47 55.1278 173.747 55.1003C173.319 55.0845 173.174 55.2359 173.182 55.6586C173.204 56.8639 173.194 58.0691 173.188 59.2743C173.188 59.6007 173.222 59.8366 173.652 59.8307C175.2 59.8052 176.752 59.8818 178.291 59.7678C179.641 59.6695 180.21 58.8005 180.16 57.2669C180.117 55.9654 179.404 55.2045 178.095 55.1298C177.373 55.0885 176.646 55.1219 175.922 55.1219L175.92 55.1239Z" fill="#FCFCFD"/>
<path d="M169.682 30.75C171.559 31.3575 171.737 32.834 171.819 34.3401C171.872 35.3172 171.862 36.3003 171.874 37.2794C171.88 37.6805 171.916 38.0639 172.239 38.3568C172.414 38.5141 172.829 38.5554 172.634 38.9034C172.489 39.163 172.152 39.0155 171.906 39.0214C171.081 39.0371 170.247 38.9604 169.432 39.047C168.608 39.1335 168.376 38.7206 168.336 38.056C168.265 36.8823 168.211 35.7065 168.156 34.5328C168.075 32.779 167.511 32.2206 165.725 32.1852C164.57 32.1616 163.412 32.199 162.257 32.1616C161.723 32.1439 161.588 32.3366 161.596 32.838C161.622 34.635 161.578 36.432 161.622 38.2291C161.638 38.8798 161.439 39.0882 160.792 39.0371C159.941 38.9722 158.82 39.3026 158.298 38.8798C157.745 38.4316 158.126 37.2814 158.122 36.4399C158.106 31.7999 158.136 27.1598 158.094 22.5198C158.086 21.6901 158.336 21.4915 159.144 21.5092C161.949 21.5702 164.759 21.5092 167.565 21.58C169.874 21.639 171.535 23.033 172.075 25.1367C172.632 27.3152 171.928 29.6666 169.682 30.7441V30.75ZM164.362 29.3009C165.088 29.3009 165.815 29.3383 166.537 29.2931C168.045 29.2007 168.739 28.426 168.763 26.8846C168.783 25.5103 167.979 24.6334 166.541 24.5488C165.586 24.4938 164.628 24.5272 163.672 24.5272C161.598 24.5272 161.582 24.5272 161.608 26.6192C161.618 27.4901 161.223 28.6246 161.781 29.1613C162.336 29.6961 163.479 29.2597 164.362 29.299V29.3009Z" fill="#FCFCFD"/>
<path d="M198.896 61.1795C200.749 62.0269 200.88 63.5723 200.854 65.1904C200.844 65.8117 200.85 66.433 200.858 67.0523C200.866 67.5792 200.858 68.1887 201.207 68.5544C202.279 69.6771 201.3 69.449 200.65 69.4549C199.89 69.4628 199.126 69.4097 198.372 69.4706C197.745 69.5217 197.538 69.2268 197.511 68.7019C197.463 67.7562 197.449 66.8085 197.388 65.8628C197.35 65.2789 197.294 64.689 197.163 64.1189C196.959 63.2243 196.427 62.717 195.415 62.7485C194.161 62.7858 192.903 62.7819 191.651 62.717C190.931 62.6797 190.675 62.8507 190.705 63.6195C190.77 65.3162 190.695 67.0169 190.74 68.7156C190.756 69.333 190.57 69.5198 189.965 69.4647C189.052 69.3841 187.851 69.8324 187.296 69.2956C186.736 68.755 187.133 67.5655 187.131 66.6611C187.115 62.1193 187.145 57.5776 187.103 53.0359C187.095 52.2495 187.329 52.0666 188.087 52.0823C191.026 52.1393 193.967 52.102 196.903 52.159C198.804 52.1964 200.217 53.1932 200.941 54.8506C201.775 56.7597 201.638 58.6786 200.134 60.3262C199.826 60.6644 199.443 60.9023 198.892 61.1776L198.896 61.1795ZM193.459 59.8249V59.7856C194.282 59.7856 195.116 59.8622 195.927 59.7679C197.294 59.6086 197.868 58.7868 197.802 57.2768C197.743 55.93 197.088 55.1947 195.739 55.1377C194.258 55.0748 192.772 55.1219 191.288 55.1003C190.873 55.0944 190.705 55.2104 190.713 55.6508C190.738 56.858 190.736 58.0652 190.713 59.2704C190.705 59.699 190.851 59.8465 191.28 59.8308C192.004 59.8052 192.731 59.8229 193.457 59.8229L193.459 59.8249Z" fill="#FCFCFD"/>
<path d="M126.283 26.7628C126.045 27.0655 126.166 27.3998 126.166 27.7065C126.156 31.1688 126.144 34.6292 126.172 38.0915C126.178 38.76 126.092 39.0667 125.283 39.0529C122.846 39.0156 122.844 39.0569 122.844 36.5992C122.844 31.8963 122.858 27.1933 122.828 22.4924C122.824 21.7669 122.987 21.582 123.775 21.47C125.969 21.1593 127.196 21.9418 128.162 23.961C129.702 27.1874 131.614 30.2408 133.378 33.3866C133.718 33.1762 133.561 32.8911 133.563 32.669C133.575 29.2401 133.591 25.8112 133.555 22.3823C133.547 21.6961 133.73 21.4582 134.43 21.5191C135.246 21.5919 136.313 21.2694 136.823 21.6725C137.371 22.105 136.99 23.2021 136.994 24.0082C137.012 28.7112 136.988 33.4141 137.019 38.1151C137.023 38.817 136.863 38.9723 136.121 39.0686C134.097 39.3301 132.94 38.6322 132.025 36.7624C130.493 33.6304 128.63 30.6576 126.894 27.6239C126.723 27.327 126.63 26.9653 126.283 26.7608V26.7628Z" fill="#FCFCFD"/>
<path d="M140.555 30.2388C140.555 27.6278 140.577 25.0148 140.541 22.4038C140.534 21.757 140.643 21.4955 141.383 21.5132C143.625 21.5663 145.871 21.5112 148.113 21.5387C152.064 21.5859 154.352 23.381 155.084 27.2208C155.657 30.2329 155.419 33.1919 153.772 35.9149C152.514 37.9951 150.703 39.0646 148.228 39.0352C145.952 39.0096 143.675 38.9998 141.399 39.047C140.682 39.0627 140.532 38.8366 140.541 38.1701C140.579 35.5256 140.557 32.8812 140.557 30.2368L140.555 30.2388ZM144.127 30.2348C144.127 31.965 144.143 33.6952 144.117 35.4254C144.109 35.9248 144.238 36.1174 144.776 36.0958C145.764 36.0545 146.756 36.0978 147.744 36.0801C149.437 36.0506 150.463 35.3605 151.062 33.7974C151.883 31.6563 151.893 29.4425 151.409 27.2464C151.038 25.5594 149.647 24.5724 147.875 24.5351C146.885 24.5135 145.893 24.5764 144.907 24.5115C144.218 24.4663 144.099 24.7337 144.113 25.3392C144.151 26.9711 144.127 28.603 144.127 30.2348Z" fill="#FCFCFD"/>
<path d="M193.225 30.2644C193.225 27.618 193.246 24.9716 193.209 22.3272C193.199 21.6744 193.405 21.5073 194.042 21.5171C196.451 21.5564 198.864 21.5034 201.273 21.5564C204.624 21.6312 206.725 23.3554 207.569 26.5681C208.319 29.4209 208.102 32.2206 206.971 34.9063C205.822 37.6314 203.735 39.0981 200.65 39.0372C198.505 38.9939 196.356 38.9821 194.211 39.0509C193.344 39.0784 193.191 38.7855 193.205 38.0049C193.254 35.4254 193.223 32.8439 193.223 30.2644H193.225ZM196.852 30.2978C196.852 31.9945 196.874 33.6933 196.84 35.39C196.828 35.9543 197.005 36.1214 197.564 36.0958C198.487 36.0526 199.411 36.0958 200.336 36.0801C202.088 36.0487 203.193 35.2917 203.773 33.6559C204.547 31.4676 204.596 29.2538 203.906 27.0262C203.437 25.5142 202.261 24.5882 200.642 24.5371C199.685 24.5076 198.725 24.5744 197.772 24.5115C197.062 24.4663 196.8 24.6275 196.834 25.3982C196.903 27.0281 196.856 28.662 196.856 30.2939L196.852 30.2978Z" fill="#FCFCFD"/>
<path d="M153.244 60.7548C153.244 58.1399 153.264 55.5249 153.231 52.912C153.223 52.2867 153.371 52.0783 154.038 52.0842C157.77 52.1157 161.505 52.1177 165.237 52.0842C165.959 52.0783 166.104 52.3221 166.098 52.9808C166.08 55.1081 166.106 55.1081 163.928 55.1081C161.749 55.1081 159.699 55.1356 157.586 55.0924C156.925 55.0786 156.729 55.2772 156.776 55.9103C156.83 56.6259 156.826 57.3495 156.776 58.0651C156.735 58.6727 156.945 58.8398 157.554 58.8319C159.9 58.7965 162.245 58.8319 164.59 58.8064C165.158 58.8005 165.388 58.8948 165.392 59.5397C165.408 61.8971 165.438 61.8971 163.05 61.8971C161.201 61.8971 159.35 61.9168 157.501 61.8853C156.943 61.8755 156.755 62.0367 156.776 62.597C156.818 63.641 156.824 64.689 156.774 65.733C156.745 66.3523 156.961 66.4958 157.56 66.488C160.269 66.4565 162.979 66.5017 165.686 66.4565C166.404 66.4447 166.551 66.6649 166.541 67.3314C166.513 69.4548 166.541 69.4548 164.388 69.4548C160.985 69.4548 157.582 69.4253 154.181 69.4765C153.369 69.4883 153.217 69.2346 153.231 68.4973C153.274 65.9158 153.248 63.3343 153.248 60.7528L153.244 60.7548Z" fill="#FCFCFD"/>
<path d="M210.729 30.2879C210.729 27.6415 210.745 24.9952 210.717 22.3488C210.712 21.7432 210.831 21.5073 211.513 21.5132C215.311 21.5486 219.109 21.5407 222.907 21.5171C223.464 21.5132 223.621 21.6665 223.631 22.2229C223.669 24.5253 223.688 24.5253 221.365 24.5253C219.317 24.5253 217.269 24.5567 215.224 24.5076C214.503 24.4899 214.297 24.7278 214.37 25.3923C214.476 26.3537 213.956 27.6042 214.597 28.2097C215.184 28.7662 216.424 28.3493 217.375 28.3651C218.96 28.3887 220.545 28.3906 222.129 28.3611C222.663 28.3513 222.865 28.4732 222.877 29.0532C222.93 31.4125 222.952 31.4125 220.565 31.4125C218.75 31.4125 216.932 31.4302 215.117 31.4027C214.575 31.3948 214.345 31.5305 214.366 32.1066C214.404 33.1506 214.412 34.1985 214.365 35.2425C214.337 35.8717 214.589 36.0093 215.172 36.0034C217.813 35.9798 220.456 36.027 223.097 35.972C223.909 35.9562 224.077 36.2236 224.061 36.9648C224.022 39.0253 224.053 39.0253 221.932 39.0253C218.464 39.0253 214.997 39.0076 211.529 39.0411C210.87 39.047 210.706 38.8562 210.714 38.2232C210.747 35.5768 210.727 32.9304 210.727 30.284L210.729 30.2879Z" fill="#FCFCFD"/>
<path d="M204.801 60.7902C204.801 58.1772 204.826 55.5623 204.785 52.9513C204.773 52.2514 204.997 52.0823 205.676 52.0882C209.406 52.1177 213.138 52.1177 216.871 52.0882C217.512 52.0823 217.702 52.2494 217.7 52.8962C217.692 55.1081 217.72 55.1101 215.531 55.1101C213.384 55.1101 211.237 55.1278 209.092 55.0983C208.535 55.0904 208.334 55.2477 208.368 55.81C208.412 56.5591 208.418 57.3141 208.368 58.0632C208.327 58.6766 208.551 58.8398 209.154 58.8319C211.466 58.8005 213.777 58.8457 216.089 58.8024C216.787 58.7887 216.968 58.9872 216.962 59.6695C216.942 61.8991 216.972 61.8991 214.68 61.8991C212.896 61.8991 211.112 61.9423 209.331 61.8794C208.515 61.8499 208.317 62.1311 208.364 62.8782C208.424 63.8219 208.414 64.7735 208.364 65.7192C208.334 66.3248 208.531 66.4998 209.142 66.4919C211.849 66.4604 214.557 66.5037 217.265 66.4624C217.966 66.4526 218.142 66.6492 218.135 67.3295C218.111 69.4588 218.141 69.4588 215.984 69.4588C212.614 69.4588 209.247 69.4332 205.88 69.4784C205.055 69.4902 204.747 69.3506 204.775 68.4364C204.852 65.8903 204.801 63.3402 204.801 60.7941V60.7902Z" fill="#FCFCFD"/>
<path d="M127.916 58.653C127.916 60.4815 127.973 62.3119 127.904 64.1385C127.773 67.5202 125.946 69.5197 122.566 69.9896C120.781 70.2373 118.997 70.0977 117.318 69.3919C115.389 68.5819 114.147 67.2095 113.951 65.0606C113.909 64.6064 113.848 64.1503 113.848 63.6941C113.84 60.102 113.85 56.5099 113.834 52.9179C113.832 52.3831 113.891 52.1019 114.56 52.0823C117.419 51.9997 117.417 51.9761 117.417 54.7955C117.417 57.6031 117.401 60.4127 117.423 63.2203C117.439 65.3299 118.269 66.5509 119.898 66.9775C122.176 67.5752 124.07 66.2225 124.1 63.8947C124.146 60.2711 124.138 56.6456 124.108 53.0201C124.102 52.3143 124.243 52.0095 125.021 52.0823C125.773 52.153 126.539 52.1275 127.297 52.0882C127.837 52.0606 127.964 52.2769 127.958 52.7704C127.936 54.7286 127.948 56.6889 127.948 58.6491C127.938 58.6491 127.928 58.6491 127.92 58.6491L127.916 58.653Z" fill="#FCFCFD"/>
<path d="M104.189 38.9979C104.816 37.2205 105.423 35.51 106.024 33.7975C107.363 29.9833 108.717 26.1729 110.022 22.3469C110.238 21.7118 110.522 21.4562 111.205 21.5211C112.348 21.6293 113.77 21.0827 114.568 21.7374C115.306 22.3429 115.409 23.7192 115.77 24.7632C117.304 29.1988 118.814 33.6442 120.376 38.0699C120.644 38.8268 120.604 39.1159 119.703 39.0431C118.753 38.9664 117.598 39.3203 116.892 38.8956C116.175 38.467 116.139 37.2264 115.903 36.322C115.695 35.5277 115.304 35.3252 114.518 35.3606C113.068 35.4274 111.611 35.4058 110.159 35.3665C109.552 35.3507 109.226 35.4923 109.012 36.1175C108.681 37.0908 108.647 38.5221 107.832 38.8897C106.851 39.3321 105.512 38.994 104.187 38.994L104.189 38.9979ZM112.373 25.4258C111.627 27.7262 110.971 29.7827 110.288 31.8334C110.101 32.3937 110.312 32.5176 110.832 32.4999C111.554 32.4743 112.28 32.494 113.002 32.494C114.119 32.494 114.505 31.9605 114.161 30.8936C113.594 29.1457 113.018 27.3998 112.373 25.4278V25.4258Z" fill="#FCFCFD"/>
<path d="M182.538 21.5309C183.948 21.5309 184.884 22.1895 185.345 23.5068C187.054 28.3592 188.746 33.2194 190.49 38.06C190.8 38.9211 190.609 39.1492 189.742 39.0371C189.353 38.986 188.951 39.0293 188.556 39.0293C187.423 39.0293 186.689 38.4781 186.353 37.3758C185.946 36.0454 185.033 35.3802 183.615 35.3802C182.46 35.3802 181.305 35.4037 180.151 35.3703C179.611 35.3546 179.313 35.4863 179.164 36.0506C178.95 36.8665 178.609 37.649 178.363 38.4591C178.226 38.9093 177.986 39.0627 177.515 39.0391C176.726 39.0017 175.93 38.9978 175.14 39.0391C174.484 39.0745 174.367 38.9172 174.593 38.2762C176.117 33.9803 177.599 29.6686 179.095 25.3628C179.426 24.4092 179.805 23.4694 180.079 22.5002C180.287 21.7648 180.623 21.3716 181.45 21.521C181.801 21.5839 182.174 21.5309 182.538 21.5309ZM182.438 25.5673C181.782 27.6455 181.131 29.7276 180.46 31.8018C180.295 32.3091 180.393 32.5175 180.97 32.4998C181.96 32.4703 182.95 32.4644 183.94 32.4998C184.55 32.5234 184.686 32.3228 184.514 31.7605C183.921 29.8298 183.355 27.8912 182.776 25.9566C182.726 25.7895 182.738 25.5634 182.438 25.5653V25.5673Z" fill="#FCFCFD"/>
<path d="M224.458 66.4762C227.21 66.4762 229.917 66.4978 232.623 66.4624C233.308 66.4526 233.6 66.5489 233.582 67.3413C233.532 69.4568 233.578 69.4588 231.415 69.4588C227.849 69.4588 224.282 69.4332 220.716 69.4784C219.958 69.4883 219.849 69.2621 219.789 68.5602C219.66 67.0621 220.157 65.9178 221.127 64.7676C223.742 61.6631 226.234 58.4603 228.782 55.289C228.502 54.9823 228.189 55.1179 227.919 55.116C225.508 55.1022 223.097 55.0983 220.688 55.116C220.204 55.1199 220.004 55.0275 219.98 54.4829C219.881 52.1 219.859 52.1 222.282 52.1C225.716 52.1 229.151 52.1216 232.584 52.0823C233.322 52.0744 233.496 52.269 233.534 53.0024C233.6 54.245 233.254 55.2123 232.445 56.1914C229.851 59.3215 227.361 62.5341 224.837 65.7212C224.685 65.9139 224.429 66.0613 224.46 66.4762H224.458Z" fill="#FCFCFD"/>
<path d="M135.293 62.2549C135.293 61.1106 135.301 59.9683 135.291 58.8241C135.279 57.6208 135.248 56.4175 135.226 55.2143C134.019 54.9783 132.799 55.1671 131.587 55.1101C131.289 55.0963 130.989 55.0825 130.696 55.114C130.188 55.1691 130.025 54.9941 130.007 54.4691C129.922 52.0999 129.902 52.0999 132.327 52.0999C135.96 52.0999 139.595 52.1216 143.228 52.0823C143.978 52.0744 144.163 52.2749 144.147 53.0044C144.105 55.1081 144.141 55.1022 141.968 55.112C140.982 55.116 139.666 54.7817 139.099 55.2733C138.45 55.8375 138.902 57.1706 138.895 58.1674C138.871 61.6317 138.863 65.096 138.902 68.5583C138.91 69.3015 138.708 69.5394 137.964 69.4705C137.115 69.3899 135.994 69.7242 135.474 69.3015C134.922 68.8512 135.315 67.705 135.299 66.8635C135.273 65.3279 135.291 63.7924 135.291 62.2569L135.293 62.2549Z" fill="#FCFCFD"/>
<path d="M146.03 60.7096C146.03 58.0966 146.046 55.4837 146.018 52.8707C146.012 52.2868 146.145 52.041 146.782 52.0882C147.504 52.1432 148.234 52.1256 148.961 52.0921C149.486 52.0685 149.633 52.2671 149.631 52.7724C149.617 58.1281 149.617 63.4858 149.631 68.8414C149.631 69.3035 149.492 69.5197 149.012 69.4568C148.98 69.4529 148.947 69.4568 148.913 69.4568C147.992 69.4372 146.79 69.7576 146.224 69.3035C145.627 68.8257 146.056 67.589 146.042 66.6846C146.012 64.6929 146.032 62.6993 146.032 60.7076L146.03 60.7096Z" fill="#FCFCFD"/>
</g>
<defs>
<clipPath id="clip0_23_242">
<rect width="244" height="89" fill="white" transform="translate(0.395752)"/>
</clipPath>
</defs>
</svg>
